<svg width="818" height="686" viewBox="0 0 818 686" fill="none" xmlns="http://www.w3.org/2000/svg">
<g filter="url(#filter0_f_23_28)">
<path d="M288.521 449.384C218.346 348.08 253.723 213.36 367.538 148.478C481.353 83.5969 630.506 113.123 700.681 214.427" stroke="url(#paint0_linear_23_28)" stroke-opacity="0.15" stroke-width="80" stroke-linecap="round"/>
</g>
<g filter="url(#filter1_f_23_28)">
<path d="M529.159 241.375C597.417 339.911 560.486 472.387 446.671 537.268C332.857 602.15 185.258 574.867 117 476.332" stroke="url(#paint1_linear_23_28)" stroke-opacity="0.15" stroke-width="80" stroke-linecap="round"/>
</g>
<g filter="url(#filter2_f_23_28)">
<path d="M379.167 275.455L408.4 375.96H409.513L438.746 275.455H482.457L435.405 418H382.508L335.456 275.455H379.167Z" fill="url(#paint2_linear_23_28)" fill-opacity="0.25"/>
</g>
<path d="M288.521 449.384C218.346 348.08 253.723 213.36 367.538 148.478C481.353 83.5969 630.506 113.123 700.681 214.427" stroke="url(#paint3_linear_23_28)" stroke-width="80" stroke-linecap="round"/>
<path d="M529.159 241.375C597.417 339.911 560.486 472.387 446.671 537.268C332.857 602.15 185.258 574.867 117 476.332" stroke="url(#paint4_linear_23_28)" stroke-width="80" stroke-linecap="round"/>
<path d="M379.167 275.455L408.4 375.96H409.513L438.746 275.455H482.457L435.405 418H382.508L335.456 275.455H379.167Z" fill="url(#paint5_linear_23_28)"/>
<defs>
<filter id="filter0_f_23_28" x="135.833" y="0.727203" width="681.402" height="562.05" filterUnits="userSpaceOnUse" color-interpolation-filters="sRGB">
<feFlood flood-opacity="0" result="BackgroundImageFix"/>
<feBlend mode="normal" in="SourceGraphic" in2="BackgroundImageFix" result="shape"/>
<feGaussianBlur stdDeviation="37.5" result="effect1_foregroundBlur_23_28"/>
</filter>
<filter id="filter1_f_23_28" x="0.445557" y="127.981" width="679.639" height="557.819" filterUnits="userSpaceOnUse" color-interpolation-filters="sRGB">
<feFlood flood-opacity="0" result="BackgroundImageFix"/>
<feBlend mode="normal" in="SourceGraphic" in2="BackgroundImageFix" result="shape"/>
<feGaussianBlur stdDeviation="37.5" result="effect1_foregroundBlur_23_28"/>
</filter>
<filter id="filter2_f_23_28" x="285.457" y="225.455" width="247" height="242.545" filterUnits="userSpaceOnUse" color-interpolation-filters="sRGB">
<feFlood flood-opacity="0" result="BackgroundImageFix"/>
<feBlend mode="normal" in="SourceGraphic" in2="BackgroundImageFix" result="shape"/>
<feGaussianBlur stdDeviation="25" result="effect1_foregroundBlur_23_28"/>
</filter>
<linearGradient id="paint0_linear_23_28" x1="367.538" y1="148.478" x2="477.621" y2="341.585" gradientUnits="userSpaceOnUse">
<stop stop-color="white"/>
<stop offset="1" stop-color="#CA8A62"/>
</linearGradient>
<linearGradient id="paint1_linear_23_28" x1="446.671" y1="537.268" x2="339.596" y2="349.438" gradientUnits="userSpaceOnUse">
<stop stop-color="white"/>
<stop offset="1" stop-color="#CA8A62"/>
</linearGradient>
<linearGradient id="paint2_linear_23_28" x1="409" y1="228" x2="409" y2="465" gradientUnits="userSpaceOnUse">
<stop stop-color="white"/>
<stop offset="1" stop-color="#CA8A62"/>
</linearGradient>
<linearGradient id="paint3_linear_23_28" x1="367.538" y1="148.478" x2="477.621" y2="341.585" gradientUnits="userSpaceOnUse">
<stop stop-color="white"/>
<stop offset="1" stop-color="#CA8A62"/>
</linearGradient>
<linearGradient id="paint4_linear_23_28" x1="323.08" y1="358.853" x2="430.155" y2="546.683" gradientUnits="userSpaceOnUse">
<stop stop-color="white"/>
<stop offset="1" stop-color="#CA8A62"/>
</linearGradient>
<linearGradient id="paint5_linear_23_28" x1="409" y1="228" x2="409" y2="465" gradientUnits="userSpaceOnUse">
<stop stop-color="white"/>
<stop offset="1" stop-color="#CA8A62"/>
</linearGradient>
</defs>
</svg>
